<svg id="Capa_1" enable-background="new 0 0 512 512" height="512" viewBox="0 0 512 512" width="512" xmlns="http://www.w3.org/2000/svg"><g><path d="m497 16h-482c-8.284 0-15 6.716-15 15v360c0 8.284 6.716 15 15 15h190.188l-20 60h-49.188c-8.284 0-15 6.716-15 15s6.716 15 15 15h240c8.284 0 15-6.716 15-15s-6.716-15-15-15h-49.188l-20-60h190.188c8.284 0 15-6.716 15-15v-360c0-8.284-6.716-15-15-15zm-15 300h-211v-270h211zm-241-270v270h-211v-270zm54.188 420h-78.377l20-60h38.377zm-265.188-90v-30h452v30c-22.565 0-438.858 0-452 0z"/><path d="m136 286c41.355 0 75-33.645 75-75v-30c0-8.284-6.716-15-15-15-16.871 0-32.456 5.603-45 15.041v-17.621c17.459-6.192 30-22.865 30-42.42 0-24.813-20.187-45-45-45s-45 20.187-45 45c0 19.555 12.541 36.228 30 42.42v17.621c-12.544-9.438-28.129-15.041-45-15.041-8.284 0-15 6.716-15 15v30c0 41.355 33.645 75 75 75zm45-87.43v12.43c0 19.556-12.539 36.239-30 42.43v-12.43c0-19.556 12.539-36.239 30-42.43zm-45-92.57c8.271 0 15 6.729 15 15s-6.729 15-15 15-15-6.729-15-15 6.729-15 15-15zm-45 92.57c17.461 6.191 30 22.873 30 42.43v12.43c-17.461-6.191-30-22.873-30-42.43z"/><path d="m326.606 161.607 19.394-19.394 19.394 19.393c5.857 5.858 15.355 5.858 21.213 0l60-60c5.858-5.858 5.858-15.355 0-21.213-5.857-5.858-15.355-5.858-21.213 0l-49.394 49.394-19.394-19.393c-5.857-5.858-15.355-5.858-21.213 0l-30 30c-5.858 5.858-5.858 15.355 0 21.213 5.858 5.857 15.356 5.857 21.213 0z"/><circle cx="316" cy="211" r="15"/><path d="m436 196h-60c-8.284 0-15 6.716-15 15s6.716 15 15 15h60c8.284 0 15-6.716 15-15s-6.716-15-15-15z"/><circle cx="316" cy="271" r="15"/><path d="m436 256h-60c-8.284 0-15 6.716-15 15s6.716 15 15 15h60c8.284 0 15-6.716 15-15s-6.716-15-15-15z"/></g></svg>